<svg width="40" height="40" viewBox="0 0 40 40" fill="none" xmlns="http://www.w3.org/2000/svg">
<path d="M20.6893 22.2286L20.7 22.1786C20.9072 21.325 21.1679 20.2607 20.9643 19.2964C20.8286 18.5357 20.2679 18.2393 19.7893 18.2179C19.225 18.1929 18.7214 18.5143 18.5964 18.9821C18.3607 19.8393 18.5714 21.0107 18.9572 22.5036C18.4714 23.6607 17.6964 25.3429 17.1286 26.3429C16.0714 26.8893 14.6536 27.7321 14.4429 28.7964C14.4 28.9929 14.45 29.2429 14.5679 29.4679C14.7 29.7179 14.9107 29.9107 15.1572 30.0036C15.2643 30.0429 15.3929 30.075 15.5429 30.075C16.1714 30.075 17.1893 29.5679 18.5464 27.2393C18.7536 27.1714 18.9679 27.1 19.175 27.0286C20.1464 26.7 21.1536 26.3571 22.0643 26.2036C23.0714 26.7429 24.2179 27.0893 24.9964 27.0893C25.7679 27.0893 26.0714 26.6321 26.1857 26.3571C26.3857 25.875 26.2893 25.2679 25.9643 24.9429C25.4929 24.4786 24.3464 24.3571 22.5607 24.5786C21.6822 24.0429 21.1072 23.3143 20.6893 22.2286ZM16.7714 27.6536C16.275 28.375 15.9 28.7357 15.6964 28.8929C15.9357 28.4536 16.4036 27.9893 16.7714 27.6536ZM19.9 19.2429C20.0857 19.5607 20.0607 20.5214 19.9179 21.0071C19.7429 20.2964 19.7179 19.2893 19.8214 19.1714C19.85 19.175 19.875 19.1964 19.9 19.2429ZM19.8429 23.5464C20.225 24.2071 20.7072 24.775 21.2393 25.1964C20.4679 25.3714 19.7643 25.6607 19.1357 25.9179C18.9857 25.9786 18.8393 26.0393 18.6964 26.0964C19.1714 25.2357 19.5679 24.2607 19.8429 23.5464V23.5464ZM25.4 25.8857C25.4036 25.8929 25.4072 25.9036 25.3857 25.9179H25.3786L25.3714 25.9286C25.3429 25.9464 25.05 26.1179 23.7893 25.6214C25.2393 25.5536 25.3964 25.8821 25.4 25.8857V25.8857ZM32.2357 12.0214L24.55 4.33571C24.3357 4.12143 24.0464 4 23.7429 4H8.57145C7.9393 4 7.42859 4.51071 7.42859 5.14286V34.8571C7.42859 35.4893 7.9393 36 8.57145 36H31.4286C32.0607 36 32.5714 35.4893 32.5714 34.8571V12.8321C32.5714 12.5286 32.45 12.2357 32.2357 12.0214V12.0214ZM29.9357 13.3571H23.2143V6.63571L29.9357 13.3571ZM30 33.4286H10V6.57143H20.7857V14.2857C20.7857 14.6835 20.9438 15.0651 21.2251 15.3464C21.5064 15.6277 21.8879 15.7857 22.2857 15.7857H30V33.4286Z" fill="black"/>
</svg>
